<svg xmlns="http://www.w3.org/2000/svg" viewBox="0 0 500 500"><g id="freepik--background-complete--inject-5"><rect y="382.4" width="500" height="0.25" style="fill:#ebebeb"></rect><rect x="416.78" y="398.49" width="33.12" height="0.25" style="fill:#ebebeb"></rect><rect x="322.53" y="401.21" width="8.69" height="0.25" style="fill:#ebebeb"></rect><rect x="396.59" y="389.21" width="19.19" height="0.25" style="fill:#ebebeb"></rect><rect x="52.46" y="390.89" width="43.19" height="0.25" style="fill:#ebebeb"></rect><rect x="104.56" y="390.89" width="6.33" height="0.25" style="fill:#ebebeb"></rect><rect x="131.47" y="395.11" width="93.68" height="0.25" style="fill:#ebebeb"></rect><path d="M237,337.8H43.91a5.71,5.71,0,0,1-5.7-5.71V60.66A5.71,5.71,0,0,1,43.91,55H237a5.71,5.71,0,0,1,5.71,5.71V332.09A5.71,5.71,0,0,1,237,337.8ZM43.91,55.2a5.46,5.46,0,0,0-5.45,5.46V332.09a5.46,5.46,0,0,0,5.45,5.46H237a5.47,5.47,0,0,0,5.46-5.46V60.66A5.47,5.47,0,0,0,237,55.2Z" style="fill:#ebebeb"></path><path d="M453.31,337.8H260.21a5.72,5.72,0,0,1-5.71-5.71V60.66A5.72,5.72,0,0,1,260.21,55h193.1A5.71,5.71,0,0,1,459,60.66V332.09A5.71,5.71,0,0,1,453.31,337.8ZM260.21,55.2a5.47,5.47,0,0,0-5.46,5.46V332.09a5.47,5.47,0,0,0,5.46,5.46h193.1a5.47,5.47,0,0,0,5.46-5.46V60.66a5.47,5.47,0,0,0-5.46-5.46Z" style="fill:#ebebeb"></path><rect x="279.75" y="74.65" width="164.45" height="145.92" style="fill:#e6e6e6"></rect><rect x="283.86" y="78.65" width="156" height="138" style="fill:#f0f0f0"></rect><polygon points="320.48 78.65 283.86 216.35 283.86 151.65 303.19 78.65 320.48 78.65" style="fill:#fff"></polygon><polygon points="333.44 78.65 296.51 216.65 290.62 216.65 327.55 78.65 333.44 78.65" style="fill:#fff"></polygon><polygon points="439.86 165.73 439.86 187.78 432.39 216.65 426.5 216.65 439.86 165.73" style="fill:#fff"></polygon><rect x="335.65" y="76.17" width="2.63" height="143.56" style="fill:#e6e6e6"></rect><rect x="386.57" y="76.17" width="2.63" height="143.56" style="fill:#e6e6e6"></rect><rect x="52.46" y="301.05" width="90.67" height="81.31" style="fill:#f5f5f5"></rect><rect x="52.46" y="301.05" width="31.56" height="81.31" style="fill:#ebebeb"></rect><rect x="70.5" y="221.41" width="90.67" height="81.31" style="fill:#ebebeb"></rect><rect x="70.5" y="221.41" width="31.56" height="81.31" style="fill:#e0e0e0"></rect><rect x="52.46" y="140.34" width="90.67" height="81.31" style="fill:#f5f5f5"></rect><rect x="52.46" y="140.34" width="31.56" height="81.31" style="fill:#ebebeb"></rect><rect x="151.13" y="301.12" width="90.67" height="81.31" style="fill:#ebebeb"></rect><rect x="151.13" y="301.12" width="31.56" height="81.31" style="fill:#e0e0e0"></rect><rect x="161.17" y="251.87" width="90.67" height="50.93" style="fill:#f5f5f5"></rect><rect x="161.17" y="251.87" width="31.56" height="50.93" style="fill:#e6e6e6"></rect><rect x="154.13" y="171.41" width="58.58" height="81.31" style="fill:#ebebeb"></rect><rect x="154.13" y="171.41" width="20.39" height="81.31" style="fill:#e0e0e0"></rect><rect x="346.51" y="301.19" width="90.67" height="81.31" transform="translate(783.69 683.7) rotate(180)" style="fill:#f5f5f5"></rect><rect x="405.63" y="301.19" width="31.56" height="81.31" transform="translate(842.81 683.7) rotate(180)" style="fill:#e6e6e6"></rect><rect x="328.47" y="236.68" width="90.67" height="66.19" transform="translate(747.6 539.55) rotate(180)" style="fill:#ebebeb"></rect><rect x="387.58" y="236.68" width="31.56" height="66.19" transform="translate(806.72 539.55) rotate(180)" style="fill:#e0e0e0"></rect><rect x="349.75" y="204.28" width="87.44" height="32.4" transform="translate(786.93 440.96) rotate(180)" style="fill:#f5f5f5"></rect><rect x="406.75" y="204.28" width="30.43" height="32.4" transform="translate(843.94 440.96) rotate(180)" style="fill:#e6e6e6"></rect></g><g id="freepik--Shadow--inject-5"><ellipse id="freepik--path--inject-5" cx="250" cy="416.24" rx="193.89" ry="11.32" style="fill:#f5f5f5"></ellipse></g><g id="freepik--character-1--inject-5"><g id="freepik--group--inject-5"><path d="M225.75,226.47,206,228.23l-7.92-4.47s-25.4-14.15-32-18.62c-2-1.37-3.87-4.35-5.48-7.85a79.06,79.06,0,0,1-3.48-9.23c-.45-1.41-.85-2.76-1.19-4-.76-2.67-1.23-4.67-1.36-5.21h0a.49.49,0,0,0,0-.13h0l.05,0,6.26-2,5.23-1.66s.24,1.24.65,3.13l.36,1.67c.11.48.22,1,.34,1.52,1.32,5.82,3.35,13.76,4.82,15.06,2.37,2.09,32.17,22.4,33.23,22.93s10.55,0,10.55,0Z" style="fill:#e4897b"></path><path d="M154.41,150.68c9.1-.14,14.89,28.06,14.89,28.06l-12,6a38.42,38.42,0,0,1-5.15-19.42C152.43,154.5,154.41,150.68,154.41,150.68Z" style="fill:#00A3B3"></path><path d="M154.41,150.68c9.1-.14,14.89,28.06,14.89,28.06l-12,6a38.42,38.42,0,0,1-5.15-19.42C152.43,154.5,154.41,150.68,154.41,150.68Z" style="fill:#fff;opacity:0.5"></path><polygon points="170.63 179.29 167.39 181.39 163.16 184.13 157.08 188.06 155.99 188.77 154.67 184.76 155.89 184.1 156.69 183.66 162.25 180.63 166.69 178.2 168.91 176.99 169.3 176.78 170.63 179.29" style="fill:#00A3B3"></polygon><path d="M163.7,188.77a12.92,12.92,0,0,1-3.14,8.52,79.06,79.06,0,0,1-3.48-9.23l-1.09.71-1.32-4,1.22-.66c-.76-2.67-1.23-4.67-1.36-5.21h0v-.16l1.44-11a53.58,53.58,0,0,1,4.82,9c.52,1.23,1,2.54,1.44,3.9q.23.7.42,1.44c.19.68.35,1.37.49,2.06A26,26,0,0,1,163.7,188.77Z" style="opacity:0.2;isolation:isolate"></path><polygon points="153.05 409.36 161.42 410.25 162.99 392.2 154.62 391.31 153.05 409.36" style="fill:#e4897b"></polygon><polygon points="111.3 408.75 119.4 408.75 120.07 389.97 111.96 389.97 111.3 408.75" style="fill:#e4897b"></polygon><path d="M120.53,407.81h-9.85a.72.72,0,0,0-.69.56l-1.6,7.22a1.19,1.19,0,0,0,.92,1.42.78.78,0,0,0,.26,0c3.19,0,5.51-.24,9.51-.24,2.47,0,9.91.25,13.31.25s3.85-3.36,2.45-3.67c-6.25-1.36-11-3.25-13-5A2,2,0,0,0,120.53,407.81Z" style="fill:#263238"></path><path d="M121.09,408.94a.2.2,0,0,1-.15-.17.18.18,0,0,1,.09-.18c.29-.19,2.91-1.8,3.81-1.33a.55.55,0,0,1,.33.53,1.15,1.15,0,0,1-.4,1,2.41,2.41,0,0,1-1.56.42A9.43,9.43,0,0,1,121.09,408.94Zm.55-.27a3.91,3.91,0,0,0,2.89-.15.81.81,0,0,0,.26-.69c0-.15-.07-.22-.13-.22a.4.4,0,0,0-.24-.05A7.81,7.81,0,0,0,121.64,408.67Z" style="fill:#00A3B3"></path><path d="M121,409a.21.21,0,0,1-.09-.18c0-.11.21-2.44,1.15-3.2a1,1,0,0,1,.81-.25.63.63,0,0,1,.62.5c.16.86-1.46,2.64-2.29,3.1h-.09A.2.2,0,0,1,121,409Zm1.3-3.16a4.62,4.62,0,0,0-1,2.54c.84-.63,1.87-2,1.77-2.51,0-.05,0-.19-.28-.19h-.09A.7.7,0,0,0,122.33,405.82Z" style="fill:#00A3B3"></path><path d="M162.3,407.56h-9.85a.71.71,0,0,0-.69.55l-1.6,7.22a1.2,1.2,0,0,0,.92,1.42l.27,0c3.18-.06,5.5-.25,9.51-.25,2.46,0,9.9.26,13.3.26s3.85-3.37,2.46-3.68c-6.25-1.36-11-3.24-13-5A2,2,0,0,0,162.3,407.56Z" style="fill:#263238"></path><path d="M162.86,408.68a.2.2,0,0,1-.15-.17.17.17,0,0,1,.1-.18c.29-.19,2.91-1.8,3.8-1.33a.57.57,0,0,1,.33.53,1.14,1.14,0,0,1-.4,1A2.47,2.47,0,0,1,165,409,9.51,9.51,0,0,1,162.86,408.68Zm.55-.27a4,4,0,0,0,2.89-.14.8.8,0,0,0,.26-.69c0-.16-.07-.23-.12-.23a.43.43,0,0,0-.25-.05A8,8,0,0,0,163.41,408.41Z" style="fill:#00A3B3"></path><path d="M162.81,408.72a.21.21,0,0,1-.1-.17c0-.12.21-2.45,1.15-3.21a1,1,0,0,1,.81-.25.63.63,0,0,1,.62.51c.17.85-1.45,2.64-2.29,3.09h-.09A.19.19,0,0,1,162.81,408.72Zm1.3-3.16a4.54,4.54,0,0,0-1,2.54c.83-.63,1.86-2,1.76-2.5,0-.06,0-.2-.28-.2h-.09A.67.67,0,0,0,164.11,405.56Z" style="fill:#00A3B3"></path><polygon points="154.62 391.31 162.99 392.2 162.17 401.51 153.8 400.62 154.62 391.31" style="opacity:0.2;isolation:isolate"></polygon><polygon points="111.96 389.98 120.07 389.98 119.72 399.67 111.61 399.67 111.96 389.98" style="opacity:0.2;isolation:isolate"></polygon><path d="M115.3,225.22h43c4.09,22.35,16.9,101.42,7.71,171.87l-14.57-1.81s1.35-93.53-11.51-128.1c-1.48,18.5-3.24,38.19-4.76,48.67C131.46,341.63,123.45,398,123.45,398H108.62s3-53.94,4.43-79.29C114.58,291.19,115.25,230.87,115.3,225.22Z" style="fill:#00A3B3"></path><path d="M140,267.18a115.13,115.13,0,0,1,4.81,18.62c1.2-16.47-3.61-33.93-3.61-33.93Z" style="opacity:0.2;isolation:isolate"></path><polygon points="167.72 400.48 149.69 397.8 150.24 392.81 168.99 395.27 167.72 400.48" style="fill:#00A3B3"></polygon><polygon points="167.72 400.48 149.69 397.8 150.24 392.81 168.99 395.27 167.72 400.48" style="fill:#fff;opacity:0.6000000000000001;isolation:isolate"></polygon><polygon points="125.23 398.11 107.74 398.11 107.74 392.88 125.89 392.54 125.23 398.11" style="fill:#00A3B3"></polygon><polygon points="125.23 398.11 107.74 398.11 107.74 392.88 125.89 392.54 125.23 398.11" style="fill:#fff;opacity:0.6000000000000001;isolation:isolate"></polygon><polygon points="115.22 232.7 115.18 226.47 159.04 223.76 159.35 229.8 115.22 232.7" style="fill:#263238"></polygon><rect x="124.34" y="224.89" width="1.98" height="9.13" style="fill:#00A3B3"></rect><rect x="155" y="221.9" width="1.98" height="9.13" transform="translate(-16.07 11.96) rotate(-4.17)" style="fill:#00A3B3"></rect><path d="M159,223.76,115.18,227c0-3.84-.1-8.12-.39-12.64-.54-8.35-1.57-17.49-2.72-26.06-2.44-18.21-5.43-33.84-5.43-33.84,20.4-5.15,47.77-3.81,47.77-3.81C161.52,177.29,159,223.76,159,223.76Z" style="fill:#00A3B3"></path><path d="M159,223.76,115.18,227c0-3.84-.1-8.12-.39-12.64-.54-8.35-1.57-17.49-2.72-26.06-2.44-18.21-5.43-33.84-5.43-33.84,20.4-5.15,47.77-3.81,47.77-3.81C161.52,177.29,159,223.76,159,223.76Z" style="fill:#fff;opacity:0.6000000000000001"></path><path d="M122.21,151.73c4,3.59,13.63,2.27,13.63,2.27s6-1.66,4.77-3.55c-3.56-.58-5.28-2.24-6-4.37a10.08,10.08,0,0,1-.36-4.06,19.32,19.32,0,0,1,.3-2.27l-12-8.86C124.16,136.74,126.08,147.49,122.21,151.73Z" style="fill:#e4897b"></path><path d="M125.36,136.52c.47,7.18,6.37,9.16,9.26,9.56a10.08,10.08,0,0,1-.36-4.06Z" style="opacity:0.2;isolation:isolate"></path><path d="M146,113.83c2.91,2.76,1.7,11.17-4.23,15.47s-5.93-16.5-5.93-16.5S144.15,112.07,146,113.83Z" style="fill:#263238"></path><path d="M124.55,138.18a10.14,10.14,0,0,0,11.65,3.93,11.28,11.28,0,0,0,6.44-5.25,11.89,11.89,0,0,0,.54-1.07C146.1,129,147,117,139.81,112.54A11,11,0,0,0,124.66,116a11.13,11.13,0,0,0-1.65,4.84C122.13,128.8,121.23,133.46,124.55,138.18Z" style="fill:#e4897b"></path><path d="M134.65,125.09c-.15.63.14,1.22.57,1.29s.85-.4,1-1-.15-1.22-.56-1.29S134.77,124.44,134.65,125.09Z" style="fill:#263238"></path><path d="M141.94,126.33c-.15.63.15,1.23.56,1.3s.86-.4,1-1-.15-1.23-.57-1.3S142.05,125.72,141.94,126.33Z" style="fill:#263238"></path><path d="M139.57,126.25a23.13,23.13,0,0,0,2.14,6,3.77,3.77,0,0,1-3.2.05Z" style="fill:#de5753"></path><path d="M132.79,122.34a.44.44,0,0,0,.4-.08,3.07,3.07,0,0,1,2.64-.86.38.38,0,0,0,.46-.28.39.39,0,0,0-.28-.46h0a3.84,3.84,0,0,0-3.35,1,.39.39,0,0,0,0,.54h0A.49.49,0,0,0,132.79,122.34Z" style="fill:#263238"></path><path d="M136.89,135.5h0a5.85,5.85,0,0,1-4.77-2.6.2.2,0,0,1,.07-.28.2.2,0,0,1,.27.06v0a5.63,5.63,0,0,0,4.44,2.39.2.2,0,0,1,.2.19v0a.2.2,0,0,1-.19.19Z" style="fill:#263238"></path><path d="M145.5,124.35a.43.43,0,0,0,.22.06.4.4,0,0,0,.27-.47h0a3.78,3.78,0,0,0-2.36-2.59.38.38,0,0,0-.47.25h0a.39.39,0,0,0,.25.48h0a3.09,3.09,0,0,1,1.84,2.08A.38.38,0,0,0,145.5,124.35Z" style="fill:#263238"></path><path d="M130.51,111.94v3.56a2.64,2.64,0,0,0-1.72,3.14c.77,3.1-1.46,7.48-3.95,9,0,0,.08-1.29-1-1.12s-1.63,6.88.09,10.31c0,0-2.84-3.26-3.78-10.48-.88-6.68-.42-12.1,1.21-14.44Z" style="fill:#263238"></path><path d="M118.45,126.72a7.66,7.66,0,0,0,3.66,4.55c2.36,1.27,4.13-.71,4-3.24-.16-2.26-1.56-5.7-4.18-5.9S117.77,124.33,118.45,126.72Z" style="fill:#e4897b"></path><path d="M119.75,118s-2.47-5.93,4-10.28,21.82.72,22.9,4.25S136.12,121.91,119.75,118Z" style="fill:#263238"></path><polygon points="123.72 148.04 133.51 153.4 134.85 146.08 141.71 150.54 141.71 159.89 134.45 155.56 129.35 163.2 119.28 152.14 123.72 148.04" style="fill:#00A3B3"></polygon><rect x="137.28" y="224.23" width="10.04" height="7.54" rx="1.16" transform="translate(-12.38 8.21) rotate(-3.17)" style="fill:#fff"></rect><polygon points="123.72 148.04 133.51 153.4 134.85 146.08 141.71 150.54 141.71 159.89 134.45 155.56 129.35 163.2 119.28 152.14 123.72 148.04" style="fill:#fff;opacity:0.5"></polygon><path d="M130.51,212.46c-2.91,4.38-12.22,4.35-15.72,1.93-.54-8.35-1.57-17.49-2.72-26.06Z" style="opacity:0.2;isolation:isolate"></path><path d="M115.18,178.74s2.07,13.48,4.1,16.11,44,25.58,44,25.58l14.51-1.05,6.67,7.65s-19.33,3-21.44,2.42a20.35,20.35,0,0,1-3.73-1.44s-44-17.33-47.7-21.29-7.91-24.29-7.91-24.29Z" style="fill:#e4897b"></path><path d="M106.64,154.49c7.68-1.6,11.65,30.27,11.65,30.27l-15.71,4S97.19,156.47,106.64,154.49Z" style="fill:#00A3B3"></path><path d="M106.64,154.49c7.68-1.6,11.65,30.27,11.65,30.27l-15.71,4S97.19,156.47,106.64,154.49Z" style="fill:#fff;opacity:0.5"></path><polygon points="101.66 188 119.28 183.78 119.28 186.81 102.45 191.69 101.66 188" style="fill:#00A3B3"></polygon></g></g><g id="freepik--Boxes--inject-5"><path d="M162,387V249.92a29,29,0,0,0-5.21-16.59L152,226.47h85.1l4.79,6.86a29,29,0,0,1,5.21,16.59V385.7" style="fill:none;stroke:#263238;stroke-linecap:round;stroke-linejoin:round;stroke-width:6px"></path><circle cx="342.85" cy="408.24" r="8.81" style="fill:#263238"></circle><path d="M347.26,408.24a4.41,4.41,0,1,0-4.41,4.4A4.4,4.4,0,0,0,347.26,408.24Z" style="fill:#fff;opacity:0.4;isolation:isolate"></path><path d="M341.79,410.2h0a3.36,3.36,0,0,1-3.15-2.2l-5.19-14.22h11.69v13.07A3.35,3.35,0,0,1,341.79,410.2Z" style="fill:#263238"></path><path d="M341.79,410.2h0a3.36,3.36,0,0,1-3.15-2.2l-5.19-14.22h11.69v13.07A3.35,3.35,0,0,1,341.79,410.2Z" style="fill:#fff;opacity:0.2;isolation:isolate"></path><circle cx="244.85" cy="408.24" r="8.81" style="fill:#263238"></circle><path d="M249.26,408.24a4.41,4.41,0,1,0-4.41,4.4A4.4,4.4,0,0,0,249.26,408.24Z" style="fill:#fff;opacity:0.4;isolation:isolate"></path><path d="M243.79,410.2h0a3.36,3.36,0,0,1-3.15-2.2l-5.19-14.22h11.69v13.07A3.35,3.35,0,0,1,243.79,410.2Z" style="fill:#263238"></path><path d="M243.79,410.2h0a3.36,3.36,0,0,1-3.15-2.2l-5.19-14.22h11.69v13.07A3.35,3.35,0,0,1,243.79,410.2Z" style="fill:#fff;opacity:0.2;isolation:isolate"></path><path d="M358,383.53v8.32a2.81,2.81,0,0,1-2.81,2.81H158.26a2.81,2.81,0,0,1-2.81-2.81v-8.32Z" style="fill:#263238"></path><path d="M358,383.53v8.32a2.81,2.81,0,0,1-2.81,2.81H158.26a2.81,2.81,0,0,1-2.81-2.81v-8.32Z" style="fill:#fff;opacity:0.4;isolation:isolate"></path><path d="M288,383.53v8.32a2.81,2.81,0,0,1-2.81,2.81H158.26a2.81,2.81,0,0,1-2.81-2.81v-8.32Z" style="fill:#fff;opacity:0.2;isolation:isolate"></path><circle cx="271.85" cy="408.24" r="8.81" style="fill:#263238"></circle><path d="M276.26,408.24a4.41,4.41,0,1,0-4.41,4.4A4.4,4.4,0,0,0,276.26,408.24Z" style="fill:#fff;opacity:0.6000000000000001;isolation:isolate"></path><path d="M270.79,410.2h0a3.36,3.36,0,0,1-3.15-2.2l-5.19-14.22h11.69v13.07A3.35,3.35,0,0,1,270.79,410.2Z" style="fill:#263238"></path><path d="M270.79,410.2h0a3.36,3.36,0,0,1-3.15-2.2l-5.19-14.22h11.69v13.07A3.35,3.35,0,0,1,270.79,410.2Z" style="fill:#fff;opacity:0.4;isolation:isolate"></path><circle cx="173.85" cy="408.24" r="8.81" style="fill:#263238"></circle><path d="M178.26,408.24a4.41,4.41,0,1,0-4.41,4.4A4.4,4.4,0,0,0,178.26,408.24Z" style="fill:#fff;opacity:0.6000000000000001;isolation:isolate"></path><path d="M172.79,410.2h0a3.36,3.36,0,0,1-3.15-2.2l-5.19-14.22h11.69v13.07A3.35,3.35,0,0,1,172.79,410.2Z" style="fill:#263238"></path><path d="M172.79,410.2h0a3.36,3.36,0,0,1-3.15-2.2l-5.19-14.22h11.69v13.07A3.35,3.35,0,0,1,172.79,410.2Z" style="fill:#fff;opacity:0.4;isolation:isolate"></path><rect x="179.84" y="318.98" width="93.25" height="64.55" style="fill:#00A3B3"></rect><rect x="179.84" y="318.98" width="93.25" height="64.55" style="fill:#fff;opacity:0.4;isolation:isolate"></rect><rect x="179.84" y="318.98" width="43.27" height="64.55" style="fill:#fff;opacity:0.2;isolation:isolate"></rect><rect x="212.69" y="369.88" width="7.25" height="9.23" rx="0.92" style="opacity:0.2;isolation:isolate"></rect><rect x="202.93" y="369.88" width="7.25" height="9.23" rx="0.92" style="opacity:0.2;isolation:isolate"></rect><rect x="247.77" y="318.98" width="5.27" height="6.73" style="opacity:0.4;isolation:isolate"></rect><rect x="231.15" y="346.54" width="36.3" height="8.44" style="opacity:0.2;isolation:isolate"></rect><rect x="182.66" y="322.34" width="12.41" height="12.41" style="opacity:0.2;isolation:isolate"></rect><rect x="189.36" y="254.43" width="93.25" height="64.55" style="fill:#00A3B3"></rect><rect x="189.36" y="254.43" width="93.25" height="64.55" style="opacity:0.4;isolation:isolate"></rect><rect x="189.36" y="254.43" width="43.27" height="64.55" style="fill:#fff;opacity:0.2;isolation:isolate"></rect><rect x="222.22" y="305.33" width="7.25" height="9.23" rx="0.92" style="opacity:0.2;isolation:isolate"></rect><rect x="212.46" y="305.33" width="7.25" height="9.23" rx="0.92" style="opacity:0.2;isolation:isolate"></rect><rect x="257.29" y="254.43" width="5.27" height="6.73" style="opacity:0.4;isolation:isolate"></rect><rect x="240.67" y="281.99" width="36.3" height="8.44" style="opacity:0.2;isolation:isolate"></rect><rect x="192.19" y="257.79" width="12.41" height="12.41" style="opacity:0.2;isolation:isolate"></rect><rect x="246.44" y="254.43" width="93.25" height="64.55" style="fill:#00A3B3"></rect><rect x="246.44" y="254.43" width="93.25" height="64.55" style="fill:#fff;opacity:0.4;isolation:isolate"></rect><rect x="246.44" y="254.43" width="43.27" height="64.55" style="fill:#fff;opacity:0.2;isolation:isolate"></rect><rect x="279.3" y="305.33" width="7.25" height="9.23" rx="0.92" style="opacity:0.2;isolation:isolate"></rect><rect x="269.54" y="305.33" width="7.25" height="9.23" rx="0.92" style="opacity:0.2;isolation:isolate"></rect><rect x="314.37" y="254.43" width="5.27" height="6.73" style="opacity:0.4;isolation:isolate"></rect><rect x="297.75" y="281.99" width="36.3" height="8.44" style="opacity:0.2;isolation:isolate"></rect><rect x="249.27" y="257.79" width="12.41" height="12.41" style="opacity:0.2;isolation:isolate"></rect><rect x="214.19" y="189.88" width="93.25" height="64.55" style="fill:#00A3B3"></rect><rect x="214.19" y="189.88" width="43.27" height="64.55" style="fill:#fff;opacity:0.2;isolation:isolate"></rect><rect x="247.04" y="240.78" width="7.25" height="9.23" rx="0.92" style="opacity:0.2;isolation:isolate"></rect><rect x="237.29" y="240.78" width="7.25" height="9.23" rx="0.92" style="opacity:0.2;isolation:isolate"></rect><rect x="282.12" y="189.88" width="5.27" height="6.73" style="opacity:0.4;isolation:isolate"></rect><rect x="265.5" y="217.44" width="36.3" height="8.44" style="opacity:0.2;isolation:isolate"></rect><rect x="217.01" y="193.24" width="12.41" height="12.41" style="opacity:0.2;isolation:isolate"></rect><rect x="239.18" y="318.98" width="93.25" height="64.55" style="fill:#263238"></rect><rect x="239.18" y="318.98" width="93.25" height="64.55" style="fill:#fff;opacity:0.2;isolation:isolate"></rect><rect x="239.18" y="318.98" width="43.27" height="64.55" style="fill:#fff;opacity:0.2;isolation:isolate"></rect><rect x="272.03" y="369.88" width="7.25" height="9.23" rx="0.92" style="opacity:0.2;isolation:isolate"></rect><rect x="262.27" y="369.88" width="7.25" height="9.23" rx="0.92" style="opacity:0.2;isolation:isolate"></rect><rect x="307.11" y="318.98" width="5.27" height="6.73" style="opacity:0.4;isolation:isolate"></rect><rect x="290.49" y="346.54" width="36.3" height="8.44" style="opacity:0.2;isolation:isolate"></rect><rect x="242" y="322.34" width="12.41" height="12.41" style="opacity:0.2;isolation:isolate"></rect></g></svg>