<svg xmlns="http://www.w3.org/2000/svg" viewBox="0 0 322.02 149.25"><defs><style>.cls-1{fill:#00ada9;}.cls-2,.cls-3{fill:#773d8f;}.cls-3{font-size:60px;stroke:#000;stroke-miterlimit:10;stroke-width:0.25px;font-family:HarlowSolid, Harlow Solid Italic;}</style></defs><title>Logoyen2</title><g id="Capa_2" data-name="Capa 2"><path class="cls-1" d="M195.06,104.07l-47.81-27.6a9.38,9.38,0,0,0-9.38,0l-47.81,27.6h0L54.43,124.65a5.2,5.2,0,1,0,5.19,9l25.75-14.87v12.08l-46.7,27a5.2,5.2,0,1,0,5.19,9l41.51-24v12L62.45,168.09a5.2,5.2,0,1,0,5.2,9l17.72-10.23v.54a9.42,9.42,0,0,0,4.69,8.13l.54.31-44,25.43a5.2,5.2,0,1,0,5.19,9L101,181.84l10.4,6L89.62,200.41a5.2,5.2,0,1,0,5.19,9l27-15.56,10.39,6L106.42,214.7a5.2,5.2,0,1,0,5.2,9l49.58-28.62h0l33.86-19.54a9.4,9.4,0,0,0,4.69-8.13V112.2A9.4,9.4,0,0,0,195.06,104.07Z" transform="translate(-35.88 -75.21)"/><path class="cls-2" d="M142.56,184.91a1.66,1.66,0,0,1-.83-.22L104.1,163a1.65,1.65,0,0,1-.83-1.43V118.07a1.66,1.66,0,0,1,2.49-1.43l37.63,21.73a1.65,1.65,0,0,1,.83,1.43v43.46a1.66,1.66,0,0,1-.83,1.43A1.64,1.64,0,0,1,142.56,184.91Zm-36-24.34,34.32,19.82V140.76l-34.32-19.82Z" transform="translate(-35.88 -75.21)"/><path class="cls-2" d="M142.56,184.91a1.66,1.66,0,0,1-.83-.22L104.1,163a1.65,1.65,0,0,1-.83-1.43V118.07a1.65,1.65,0,0,1,.83-1.43l37.63-21.73a1.64,1.64,0,0,1,1.66,0L181,116.64a1.65,1.65,0,0,1,.83,1.43v43.46A1.65,1.65,0,0,1,181,163l-37.63,21.73A1.64,1.64,0,0,1,142.56,184.91Zm-36-24.34,36,20.77,36-20.77V119l-36-20.77-36,20.77Z" transform="translate(-35.88 -75.21)"/><path class="cls-2" d="M142.56,184.91a1.65,1.65,0,0,1-1.66-1.65V139.8a1.65,1.65,0,0,1,.83-1.43l37.64-21.73a1.63,1.63,0,0,1,1.65,0,1.65,1.65,0,0,1,.83,1.43v43.46A1.65,1.65,0,0,1,181,163l-37.63,21.73A1.64,1.64,0,0,1,142.56,184.91Zm1.66-44.15v39.63l34.32-19.82V120.94Z" transform="translate(-35.88 -75.21)"/><path class="cls-2" d="M142.56,141.46a1.68,1.68,0,0,1-.83-.23L104.1,119.51a1.68,1.68,0,0,1-.83-1.44,1.65,1.65,0,0,1,.83-1.43l37.63-21.73a1.64,1.64,0,0,1,1.66,0L181,116.64a1.65,1.65,0,0,1,.83,1.43,1.68,1.68,0,0,1-.83,1.44l-37.63,21.72A1.65,1.65,0,0,1,142.56,141.46Zm-34.32-23.39,34.32,19.82,34.32-19.82L142.56,98.26Z" transform="translate(-35.88 -75.21)"/><path class="cls-2" d="M142.56,141.46a1.68,1.68,0,0,1-.83-.23l-19.2-11.09a1.65,1.65,0,0,1,0-2.86l19.2-11.09a1.64,1.64,0,0,1,1.66,0l19.2,11.09a1.65,1.65,0,0,1,0,2.86l-19.2,11.09A1.65,1.65,0,0,1,142.56,141.46Zm-15.89-12.75,15.89,9.18,15.89-9.18-15.89-9.18Z" transform="translate(-35.88 -75.21)"/><polygon class="cls-2" points="69.05 42.86 61.63 63.69 99.26 85.41 106.68 64.59 69.05 42.86"/><path class="cls-2" d="M135.14,162.28a1.6,1.6,0,0,1-.82-.22L96.68,140.33a1.64,1.64,0,0,1-.73-2l7.42-20.83a1.61,1.61,0,0,1,1-1,1.64,1.64,0,0,1,1.4.12l37.63,21.73a1.65,1.65,0,0,1,.73,2l-7.42,20.82a1.61,1.61,0,0,1-1,1A1.56,1.56,0,0,1,135.14,162.28ZM99.53,138.16l34.72,20,6.29-17.66-34.72-20Z" transform="translate(-35.88 -75.21)"/><polygon class="cls-2" points="144.31 42.86 151.73 63.69 114.1 85.41 106.68 64.59 144.31 42.86"/><path class="cls-2" d="M150,162.28a1.59,1.59,0,0,1-.57-.1,1.64,1.64,0,0,1-1-1L141,140.36a1.65,1.65,0,0,1,.73-2l37.64-21.73a1.64,1.64,0,0,1,1.4-.12,1.62,1.62,0,0,1,1,1l7.42,20.82a1.65,1.65,0,0,1-.73,2l-37.63,21.73A1.64,1.64,0,0,1,150,162.28Zm-5.4-21.74,6.29,17.66,34.72-20L179.3,120.5Z" transform="translate(-35.88 -75.21)"/><path class="cls-1" d="M47.52,140.55a5.16,5.16,0,1,0-7.05-1.89A5.16,5.16,0,0,0,47.52,140.55Z" transform="translate(-35.88 -75.21)"/><path class="cls-1" d="M56.35,183.58a5.16,5.16,0,1,0-7.05-1.9A5.18,5.18,0,0,0,56.35,183.58Z" transform="translate(-35.88 -75.21)"/><path class="cls-1" d="M76.59,208a5.16,5.16,0,1,0,7.06,1.89A5.16,5.16,0,0,0,76.59,208Z" transform="translate(-35.88 -75.21)"/><text class="cls-3" transform="translate(188.02 66.25)">yen2</text></g></svg>